<svg width="140" height="140" viewBox="0 0 140 140" fill="none" xmlns="http://www.w3.org/2000/svg">
<circle cx="70" cy="70" r="70" fill="#16213C"/>
<g clip-path="url(#clip0_124_121)">
<path d="M71.2501 65C71.2501 60.875 67.8751 57.5 63.7501 57.5C59.6251 57.5 56.2501 60.875 56.2501 65C56.2501 69.125 59.6251 72.5 63.7501 72.5C67.8751 72.5 71.2501 69.125 71.2501 65ZM63.7501 67.5C62.3751 67.5 61.2501 66.375 61.2501 65C61.2501 63.625 62.3751 62.5 63.7501 62.5C65.1251 62.5 66.2501 63.625 66.2501 65C66.2501 66.375 65.1251 67.5 63.7501 67.5ZM80.0001 72.5C82.7751 72.5 85.0001 70.275 85.0001 67.5C85.0001 64.725 82.7751 62.5 80.0001 62.5C77.2251 62.5 74.9751 64.725 75.0001 67.5C75.0001 70.275 77.2251 72.5 80.0001 72.5ZM69.9751 45.025C56.1751 45.025 44.9751 56.225 44.9751 70.025C44.9751 83.825 56.1751 95.025 69.9751 95.025C83.7751 95.025 94.9751 83.825 94.9751 70.025C94.9751 56.225 83.7751 45.025 69.9751 45.025ZM54.6001 82.8C56.3001 81.45 60.2751 80.025 63.7501 80.025C63.9251 80.025 64.1251 80.05 64.3251 80.05C64.9251 78.45 66.0001 76.825 67.5751 75.4C66.3138 75.1583 65.0341 75.0245 63.7501 75C60.5001 75 55.2751 76.125 51.9251 78.575C50.6751 75.975 49.9751 73.075 49.9751 70C49.9751 58.975 58.9501 50 69.9751 50C81.0001 50 89.9751 58.975 89.9751 70C89.9751 73 89.3001 75.85 88.1001 78.425C85.6001 76.95 82.2001 76.25 80.0001 76.25C76.2001 76.25 68.7501 78.275 68.7501 83V89.95C66.0267 89.7951 63.3644 89.0802 60.9298 87.85C58.4951 86.6198 56.3403 84.9006 54.6001 82.8Z" fill="#8ECAE6"/>
</g>
<defs>
<clipPath id="clip0_124_121">
<rect width="60" height="60" fill="white" transform="translate(40 40)"/>
</clipPath>
</defs>
</svg>
